<?xml version="1.0" encoding="utf-8"?>
<svg viewBox="0 0 1333.3333 1333.3333" height="1333.3333" width="1333.3333" id="svg2" version="1.1" xmlns="http://www.w3.org/2000/svg">
  <defs id="defs6">
    <clipPath id="clipPath20" clipPathUnits="userSpaceOnUse">
      <path id="path18" d="M 0,1000 H 1000 V 0 H 0 Z"/>
    </clipPath>
  </defs>
  <g transform="matrix(1.3333333,0,0,-1.3333333,0,1333.3333)" id="g10">
    <g id="g14">
      <g clip-path="url(#clipPath20)" id="g16">
        <path id="path22" style="fill:none;stroke:#000000;stroke-width:1;stroke-linecap:butt;stroke-linejoin:miter;stroke-miterlimit:10;stroke-dasharray:none;stroke-opacity:1" d="M 1074,-18 H -74 v 1036 h 1148 z"/>
        <g transform="translate(499.999,900.8613)" id="g24">
          <path id="path26" style="fill:#ff8b00;fill-opacity:1;fill-rule:nonzero;stroke:none" d="m 0,0 c -222.181,0 -402.298,-179.471 -402.298,-400.861 0,-221.39 180.117,-400.862 402.298,-400.862 222.184,0 402.3,179.472 402.3,400.862 C 402.3,-179.471 222.184,0 0,0"/>
        </g>
        <g transform="translate(839.3457,645.3877)" id="g28">
          <path id="path30" style="fill:#ff6700;fill-opacity:1;fill-rule:nonzero;stroke:none" d="m 0,0 c -2.339,-20.849 -10.695,-38.625 -25.436,-50.564 -41.572,-33.673 -117.943,-8.297 -170.575,56.682 -52.628,64.978 -61.592,144.95 -20.019,178.622 5.343,4.329 11.27,7.665 17.638,10.083 -43.435,17.888 -91.032,27.78 -140.955,27.78 -203.962,0 -369.308,-164.754 -369.308,-367.991 0,-203.235 165.346,-367.989 369.308,-367.989 203.965,0 369.312,164.754 369.312,367.989 C 29.965,-93.746 19.27,-44.601 0,0"/>
        </g>
        <g transform="translate(420.7109,672.085)" id="g32">
          <path id="path34" style="fill:#e12229;fill-opacity:1;fill-rule:nonzero;stroke:none" d="M 0,0 H 56.613 L 76.967,57.748 97.321,0 h 56.612 L 108.599,-35.286 126.847,-92.87 76.967,-57.325 27.082,-92.87 45.33,-35.286 Z"/>
        </g>
        <g transform="translate(420.7109,358.7324)" id="g36">
          <path id="path38" style="fill:#e12229;fill-opacity:1;fill-rule:nonzero;stroke:none" d="M 0,0 H 56.613 L 76.967,57.747 97.321,0 h 56.612 l -45.334,-35.287 18.248,-57.584 -49.88,35.545 -49.885,-35.545 18.248,57.584 z"/>
        </g>
        <g transform="translate(574.6436,517.5615)" id="g40">
          <path id="path42" style="fill:#e12229;fill-opacity:1;fill-rule:nonzero;stroke:none" d="M 0,0 H 56.612 L 76.966,57.748 97.321,0 h 56.611 l -45.334,-35.286 18.248,-57.584 -49.88,35.545 -49.884,-35.545 18.247,57.584 z"/>
        </g>
        <g transform="translate(266.7793,517.5615)" id="g44">
          <path id="path46" style="fill:#e12229;fill-opacity:1;fill-rule:nonzero;stroke:none" d="M 0,0 H 56.613 L 76.966,57.748 97.321,0 h 56.611 L 108.599,-35.286 126.847,-92.87 76.966,-57.325 27.082,-92.87 45.33,-35.286 Z"/>
        </g>
        <g transform="translate(228.1074,306.7822)" id="g48">
          <path id="path50" style="fill:#ffffff;fill-opacity:1;fill-rule:nonzero;stroke:none" d="m 0,0 c -5.212,0 -10.323,2.54 -13.402,7.221 -36.364,55.293 -55.585,119.609 -55.585,185.997 0,106.662 48.807,205.056 133.911,269.953 7.041,5.366 17.094,4.01 22.458,-3.025 5.366,-7.039 4.012,-17.092 -3.026,-22.459 C 7.271,378.904 -36.939,289.799 -36.939,193.218 -36.939,133.106 -19.541,74.879 13.374,24.83 18.235,17.437 16.185,7.501 8.79,2.639 6.078,0.854 3.021,0 0,0"/>
        </g>
        <g transform="translate(348.1377,770.1865)" id="g52">
          <path id="path54" style="fill:#ffffff;fill-opacity:1;fill-rule:nonzero;stroke:none" d="m 0,0 c -5.753,0 -11.313,3.105 -14.186,8.546 -4.131,7.826 -1.135,17.519 6.689,21.651 8.663,4.573 17.624,8.818 26.638,12.617 8.153,3.434 17.55,-0.384 20.989,-8.541 C 43.568,26.119 39.744,16.722 31.588,13.283 23.426,9.843 15.31,5.998 7.467,1.857 5.08,0.598 2.521,0 0,0"/>
        </g>
      </g>
    </g>
  </g>
</svg>